<?xml version="1.0" encoding="utf-8"?>
<!-- Generator: Adobe Illustrator 15.1.0, SVG Export Plug-In  -->
<!DOCTYPE svg PUBLIC "-//W3C//DTD SVG 1.1//EN" "http://www.w3.org/Graphics/SVG/1.1/DTD/svg11.dtd" [
	<!ENTITY ns_flows "http://ns.adobe.com/Flows/1.0/">
]>
<svg version="1.1"
	 xmlns="http://www.w3.org/2000/svg" xmlns:xlink="http://www.w3.org/1999/xlink" xmlns:a="http://ns.adobe.com/AdobeSVGViewerExtensions/3.0/"
	 x="0px" y="0px" width="288px" height="184px" viewBox="0 0 288 184" enable-background="new 0 0 288 184" xml:space="preserve">
<defs>
</defs>
<rect display="none" fill="#1A1A1A" width="296" height="184"/>
<rect x="172" y="96" display="none" fill="#5A6A7F" width="4" height="24"/>
<rect x="180" y="76" fill="#5A6A7F" width="8" height="24"/>
<rect x="196" y="76" fill="#5A6A7F" width="4" height="24"/>
<rect x="208" y="76" fill="#5A6A7F" width="4" height="24"/>
<rect x="180" y="72" fill="#5A6A7F" width="32" height="4"/>
<rect x="220" y="76" fill="#5A6A7F" width="8" height="36"/>
<rect x="236" y="72" fill="#5A6A7F" width="8" height="16"/>
<rect x="240" y="108" fill="#5A6A7F" width="20" height="4"/>
<rect x="256" y="84" fill="#5A6A7F" width="4" height="28"/>
<rect x="239" y="84" fill="#5A6A7F" width="21" height="4"/>
<rect x="236" y="72" fill="#5A6A7F" width="24" height="4"/>
<rect x="264" y="72" fill="#5A6A7F" width="8" height="40"/>
<rect x="264" y="72" fill="#5A6A7F" width="24" height="4"/>
<rect x="180" y="116" fill="#5A6A7F" width="8" height="40"/>
<rect x="188" y="152" fill="#5A6A7F" width="16" height="4"/>
<rect x="208" y="116" fill="#5A6A7F" width="8" height="40"/>
<rect x="228" y="116" fill="#5A6A7F" width="4" height="40"/>
<rect x="212" y="116" fill="#5A6A7F" width="20" height="4"/>
<rect x="212" y="128" fill="#5A6A7F" width="19" height="4"/>
<rect x="236" y="116" fill="#5A6A7F" width="8" height="40"/>
<rect x="237" y="128" fill="#5A6A7F" width="19" height="4"/>
<rect x="236" y="152" fill="#5A6A7F" width="23" height="4"/>
<rect x="236" y="116" fill="#5A6A7F" width="20" height="4"/>
<rect x="252" y="120" fill="#5A6A7F" width="4" height="8"/>
<rect x="256" y="128" fill="#5A6A7F" width="4" height="28"/>
<rect x="280" y="104" fill="#5A6A7F" width="8" height="8"/>
<rect x="268" y="108" fill="#5A6A7F" width="8" height="4"/>
<rect x="264" y="116" fill="#5A6A7F" width="8" height="16"/>
<rect x="268" y="152" fill="#5A6A7F" width="20" height="4"/>
<rect x="284" y="128" fill="#5A6A7F" width="4" height="28"/>
<rect x="264" y="128" fill="#5A6A7F" width="21" height="4"/>
<rect x="264" y="116" fill="#5A6A7F" width="24" height="4"/>
<rect x="236" y="104" fill="#5A6A7F" width="8" height="8"/>
<rect x="264" y="148" fill="#5A6A7F" width="8" height="8"/>
<rect x="216" y="72" fill="#5A6A7F" width="16" height="4"/>
<rect x="216" y="108" fill="#5A6A7F" width="16" height="4"/>
<rect x="180" y="104" fill="#67A9FF" width="8" height="8"/>
<rect x="192" y="104" fill="#67A9FF" width="8" height="8"/>
<rect x="204" y="104" fill="#67A9FF" width="8" height="8"/>
<rect x="284" y="76" fill="#5A6A7F" width="4" height="4"/>
<rect x="172" y="64" display="none" fill="#5A6A7F" width="124" height="4"/>
<rect x="172" y="160" display="none" fill="#5A6A7F" width="124" height="4"/>
<rect x="172" y="67" display="none" fill="#5A6A7F" width="4" height="29"/>
<rect x="172" y="120" display="none" fill="#5A6A7F" width="4" height="44"/>
<rect x="64" y="36" fill="#214A7F" width="16" height="16"/>
<rect x="64" y="68" fill="#214A7F" width="16" height="16"/>
<rect x="64" y="100" fill="#214A7F" width="16" height="16"/>
<rect x="96" y="100" fill="#214A7F" width="16" height="16"/>
<rect x="128" y="68" fill="#214A7F" width="16" height="16"/>
<rect x="160" y="100" fill="#214A7F" width="16" height="16"/>
<rect x="32" y="132" fill="#214A7F" width="16" height="16"/>
<rect x="12" y="84" fill="#214A7F" width="16" height="16"/>
<rect x="32" y="68" fill="#B3D4FF" width="16" height="16"/>
<rect x="32" y="100" fill="#B3D4FF" width="16" height="16"/>
<rect x="96" y="68" fill="#B3D4FF" width="16" height="16"/>
<rect x="128" y="100" fill="#B3D4FF" width="16" height="16"/>
<rect x="128" y="36" fill="#7A92B3" width="16" height="16"/>
<rect x="96" y="132" fill="#7A92B3" width="16" height="16"/>
<rect x="68" y="12" fill="#67A9FF" width="8" height="8"/>
<rect x="68" fill="#67A9FF" width="8" height="8"/>
<rect x="68" y="24" fill="#67A9FF" width="8" height="8"/>
<rect y="88" fill="#67A9FF" width="8" height="8"/>
<rect x="36" y="152" fill="#67A9FF" width="8" height="8"/>
<rect x="180" y="104" fill="#67A9FF" width="8" height="8"/>
<rect x="192" y="104" fill="#67A9FF" width="8" height="8"/>
<rect x="204" y="104" fill="#67A9FF" width="8" height="8"/>
<rect x="36" y="164" fill="#67A9FF" width="8" height="8"/>
<rect x="36" y="176" fill="#67A9FF" width="8" height="8"/>
<rect x="64" y="56" fill="#5A6A7F" width="16" height="8"/>
<rect x="128" y="56" fill="#5A6A7F" width="16" height="8"/>
<rect x="128" y="88" fill="#5A6A7F" width="16" height="8"/>
<rect x="96" y="120" fill="#5A6A7F" width="16" height="8"/>
<rect x="12" y="72" fill="#5A6A7F" width="16" height="8"/>
<rect x="12" y="104" fill="#5A6A7F" width="16" height="8"/>
<rect x="32" y="120" fill="#5A6A7F" width="16" height="8"/>
<rect x="52" y="68" fill="#5A6A7F" width="8" height="16"/>
<rect x="84" y="68" fill="#5A6A7F" width="8" height="16"/>
<rect x="116" y="68" fill="#5A6A7F" width="8" height="16"/>
<rect x="52" y="100" fill="#5A6A7F" width="8" height="16"/>
<rect x="84" y="100" fill="#5A6A7F" width="8" height="16"/>
<rect x="116" y="100" fill="#5A6A7F" width="8" height="16"/>
<rect x="148" y="100" fill="#5A6A7F" width="8" height="16"/>
<rect x="64" y="88" fill="#5A6A7F" width="16" height="8"/>
</svg>
