<?xml version="1.0" encoding="UTF-8" standalone="no"?>
<!DOCTYPE svg PUBLIC "-//W3C//DTD SVG 1.1//EN" "http://www.w3.org/Graphics/SVG/1.1/DTD/svg11.dtd">
<svg width="100%" height="100%" viewBox="0 0 1080 1080" version="1.1" xmlns="http://www.w3.org/2000/svg" xmlns:xlink="http://www.w3.org/1999/xlink" xml:space="preserve" xmlns:serif="http://www.serif.com/" style="fill-rule:evenodd;clip-rule:evenodd;stroke-linecap:round;stroke-linejoin:round;stroke-miterlimit:1.5;">
    <rect x="0" y="0" width="1080" height="1080" style="fill:rgb(20,20,20);"/>
    <g id="Atom">
        <g id="Electron">
            <g transform="matrix(1.16703,0,0,1.16703,-219.16,-43.3523)">
                <ellipse cx="650.506" cy="499.861" rx="110.506" ry="399.197" style="fill:none;stroke:rgb(233,110,253);stroke-width:12.85px;"/>
            </g>
            <g transform="matrix(3.29728,-10.4444,10.4444,3.29728,173.968,903.811)">
                <path d="M12.629,36.11C13.416,34.718 14.99,34.718 15.777,35.414C16.564,36.11 16.564,37.503 15.777,38.896C15.226,39.94 13.81,40.984 12.629,41.681C11.448,40.984 10.032,39.94 9.481,38.896C8.694,37.503 8.694,36.11 9.481,35.414C10.268,34.718 11.842,34.718 12.629,36.11Z" style="fill:rgb(233,110,253);"/>
            </g>
        </g>
        <g id="Electron1" serif:id="Electron" transform="matrix(-0.5,-0.866025,0.866025,-0.5,342.346,1277.65)">
            <g transform="matrix(1.16703,0,0,1.16703,-219.16,-43.3523)">
                <ellipse cx="650.506" cy="499.861" rx="110.506" ry="399.197" style="fill:none;stroke:rgb(233,110,253);stroke-width:12.85px;"/>
            </g>
            <g transform="matrix(3.29728,-10.4444,10.4444,3.29728,173.968,903.811)">
                <path d="M12.629,36.11C13.416,34.718 14.99,34.718 15.777,35.414C16.564,36.11 16.564,37.503 15.777,38.896C15.226,39.94 13.81,40.984 12.629,41.681C11.448,40.984 10.032,39.94 9.481,38.896C8.694,37.503 8.694,36.11 9.481,35.414C10.268,34.718 11.842,34.718 12.629,36.11Z" style="fill:rgb(233,110,253);"/>
            </g>
        </g>
        <g id="Electron2" serif:id="Electron" transform="matrix(-0.5,0.866025,-0.866025,-0.5,1277.65,342.346)">
            <g transform="matrix(1.16703,0,0,1.16703,-219.16,-43.3523)">
                <ellipse cx="650.506" cy="499.861" rx="110.506" ry="399.197" style="fill:none;stroke:rgb(233,110,253);stroke-width:12.85px;"/>
            </g>
            <g transform="matrix(3.29728,-10.4444,10.4444,3.29728,173.968,903.811)">
                <path d="M12.629,36.11C13.416,34.718 14.99,34.718 15.777,35.414C16.564,36.11 16.564,37.503 15.777,38.896C15.226,39.94 13.81,40.984 12.629,41.681C11.448,40.984 10.032,39.94 9.481,38.896C8.694,37.503 8.694,36.11 9.481,35.414C10.268,34.718 11.842,34.718 12.629,36.11Z" style="fill:rgb(233,110,253);"/>
            </g>
        </g>
    </g>
    <g transform="matrix(0.833346,0,0,0.788721,57.8148,72.3994)">
        <path d="M578.614,150.568L663.721,257.263L787.917,209.824L811.132,347.186L941.138,371.714L896.239,502.937L997.221,592.859L896.239,682.782L941.138,814.005L811.132,838.533L787.917,975.895L663.721,928.455L578.614,1035.15L493.506,928.455L369.31,975.895L346.096,838.533L216.089,814.005L260.988,682.782L160.006,592.859L260.988,502.937L216.089,371.714L346.096,347.186L369.31,209.824L493.506,257.263L578.614,150.568Z" style="fill:rgb(20,20,20);"/>
    </g>
    <g transform="matrix(0.744599,0,0,0.704727,109.165,122.196)">
        <path d="M578.614,150.568L663.721,257.263L787.917,209.824L811.132,347.186L941.138,371.714L896.239,502.937L997.221,592.859L896.239,682.782L941.138,814.005L811.132,838.533L787.917,975.895L663.721,928.455L578.614,1035.15L493.506,928.455L369.31,975.895L346.096,838.533L216.089,814.005L260.988,682.782L160.006,592.859L260.988,502.937L216.089,371.714L346.096,347.186L369.31,209.824L493.506,257.263L578.614,150.568Z" style="fill:rgb(20,20,20);stroke:rgb(233,110,253);stroke-width:17.93px;"/>
    </g>
    <g transform="matrix(4.12085,0,0,4.12085,348.757,376.585)">
        <text x="2.659px" y="34.665px" style="font-family:'HoneyblotCaps', 'Honeyblot Caps';font-size:38.836px;fill:rgb(132,167,253);">Misc</text>
        <g transform="matrix(38.8364,0,0,38.8364,90.1579,73.5015)">
        </g>
        <text x="2.659px" y="73.502px" style="font-family:'HoneyblotCaps', 'Honeyblot Caps';font-size:38.836px;fill:rgb(132,167,253);">Lab<tspan x="67.905px " y="73.502px ">s</tspan></text>
    </g>
</svg>
