<?xml version="1.0" encoding="UTF-8" standalone="no"?>
<!-- Generator: Adobe Illustrator 15.1.0, SVG Export Plug-In  -->

<svg
   version="1.1"
   x="0px"
   y="0px"
   viewBox="0 0 48 48"
   enable-background="new 0 0 288 184"
   xml:space="preserve"
   id="mlicon"
   sodipodi:docname="misclabs_icon.svg"
   inkscape:version="1.2.2 (732a01da63, 2022-12-09)"
   inkscape:export-filename="misclabs_icon_192x192.png"
   inkscape:export-xdpi="384"
   inkscape:export-ydpi="384"
   xmlns:inkscape="http://www.inkscape.org/namespaces/inkscape"
   xmlns:sodipodi="http://sodipodi.sourceforge.net/DTD/sodipodi-0.dtd"
   xmlns="http://www.w3.org/2000/svg"
   xmlns:svg="http://www.w3.org/2000/svg"><sodipodi:namedview
   id="namedview174"
   pagecolor="#ffffff"
   bordercolor="#000000"
   borderopacity="0.25"
   inkscape:showpageshadow="2"
   inkscape:pageopacity="0.0"
   inkscape:pagecheckerboard="0"
   inkscape:deskcolor="#d1d1d1"
   showgrid="true"
   inkscape:zoom="9"
   inkscape:cx="6"
   inkscape:cy="4e+01"
   inkscape:window-width="1278"
   inkscape:window-height="1360"
   inkscape:window-x="1273"
   inkscape:window-y="0"
   inkscape:window-maximized="0"
   inkscape:current-layer="mlicon"
   showguides="true"
   shape-rendering="crispEdges"><inkscape:grid
     type="xygrid"
     id="grid1119"
     originx="0"
     originy="0" /></sodipodi:namedview>
<defs
   id="defs2">
</defs>





<rect
   id="bg"
   width="48"
   height="48"
   x="0"
   y="0" /><path
   id="m"
   d="m 12.064,6.0156 v 3 3.0004 21 h 6 v -21 h 6 v 21 h 3 v -21 h 6 v 21 h 3 v -24.0004 -3 z"
   style="fill:#67a9ff" />














































































<path
   id="hearts"
   d="m 13,36 v 1 h -1 v 2 h 1 v 1 h 1 v 1 h 1 v 1 h 1 v -1 h 1 v -1 h 1 v -1 h 1 v -2 h -1 v -1 h -2 v 1 h -1 v -1 z m 9,0 v 1 h -1 v 2 h 1 v 1 h 1 v 1 h 1 v 1 h 1 v -1 h 1 v -1 h 1 v -1 h 1 v -2 h -1 v -1 h -2 v 1 h -1 v -1 z m 9,0 v 1 h -1 v 2 h 1 v 1 h 1 v 1 h 1 v 1 h 1 v -1 h 1 v -1 h 1 v -1 h 1 v -2 h -1 v -1 h -2 v 1 h -1 v -1 z"
   style="fill:#ff5cff" /></svg>
