<?xml version="1.0" encoding="UTF-8" standalone="no"?>
<!-- Created with Inkscape (http://www.inkscape.org/) -->

<svg
   width="256"
   height="128"
   viewBox="0 0 256 128"
   version="1.1"
   id="svg14465"
   xml:space="preserve"
   inkscape:version="1.2.2 (732a01da63, 2022-12-09)"
   sodipodi:docname="misclabs_logo.svg"
   inkscape:export-filename="misclabs_logo.png"
   inkscape:export-xdpi="192"
   inkscape:export-ydpi="192"
   xmlns:inkscape="http://www.inkscape.org/namespaces/inkscape"
   xmlns:sodipodi="http://sodipodi.sourceforge.net/DTD/sodipodi-0.dtd"
   xmlns="http://www.w3.org/2000/svg"
   xmlns:svg="http://www.w3.org/2000/svg"><sodipodi:namedview
     id="namedview14467"
     pagecolor="#ffffff"
     bordercolor="#000000"
     borderopacity="0.25"
     inkscape:showpageshadow="2"
     inkscape:pageopacity="0.0"
     inkscape:pagecheckerboard="0"
     inkscape:deskcolor="#d1d1d1"
     inkscape:document-units="px"
     showgrid="true"
     inkscape:zoom="2.6532575"
     inkscape:cx="122.11404"
     inkscape:cy="110.61874"
     inkscape:window-width="1350"
     inkscape:window-height="1230"
     inkscape:window-x="903"
     inkscape:window-y="119"
     inkscape:window-maximized="0"
     inkscape:current-layer="svg14465"
     shape-rendering="crispEdges"><inkscape:grid
       type="xygrid"
       id="grid16270"
       dotted="true" /></sodipodi:namedview><defs
     id="defs14462" /><rect
     style="display:inline;fill:#1a1a1a;fill-opacity:1"
     id="bg"
     width="256"
     height="128"
     x="0"
     y="0" /><path
     id="pink"
     style="display:inline;fill:#ff5cff"
     d="m 89,20 v 12 h 12 V 20 Z m 23,0 v 1 h -1 v 1 4 h 1 v 1 h 1 v 1 h 1 v 1 h 1 v 1 h 1 v 1 h 2 v -1 h 1 v -1 h 1 v -1 h 1 v -1 h 1 v -1 h 1 v -4 -1 h -1 v -1 h -3 v 1 h -1 v 1 h -2 v -1 h -1 v -1 z m -50,3 v 1 h -1 v 2 h 1 v 1 h 1 v 1 h 1 v 1 h 1 v -1 h 1 v -1 h 1 v -1 h 1 v -2 h -1 v -1 h -2 v 1 h -1 v -1 z m 9,0 v 1 h -1 v 2 h 1 v 1 h 1 v 1 h 1 v 1 h 1 v -1 h 1 v -1 h 1 v -1 h 1 v -2 h -1 v -1 h -2 v 1 h -1 v -1 z m 9,0 v 1 h -1 v 2 h 1 v 1 h 1 v 1 h 1 v 1 h 1 v -1 h 1 v -1 h 1 v -1 h 1 v -2 h -1 v -1 h -2 v 1 H 82 V 23 Z M 67,42 V 54 H 79 V 42 Z m 44,0 v 12 h 12 V 42 Z M 30,53 V 65 H 42 V 53 Z m -9,3 v 1 h -1 v 2 h 1 v 1 h 1 v 1 h 1 v 1 h 1 v -1 h 1 v -1 h 1 v -1 h 1 v -2 h -1 v -1 h -2 v 1 h -1 v -1 z m 46,8 V 76 H 79 V 64 Z m 22,0 v 12 h 12 V 64 Z m 44,0 v 12 h 12 V 64 Z m 16,3 v 1 h -1 v 2 h 1 v 1 h 1 v 1 h 1 v 1 h 1 v -1 h 1 v -1 h 1 v -1 h 1 v -2 h -1 v -1 h -2 v 1 h -1 v -1 z m 9,0 v 1 h -1 v 2 h 1 v 1 h 1 v 1 h 1 v 1 h 1 v -1 h 1 v -1 h 1 v -1 h 1 v -2 h -1 v -1 h -2 v 1 h -1 v -1 z m 9,0 v 1 h -1 v 2 h 1 v 1 h 1 v 1 h 1 v 1 h 1 v -1 h 1 v -1 h 1 v -1 h 1 v -2 h -1 v -1 h -2 v 1 h -1 v -1 z m 63,0 v 1 h -1 v 2 h 1 v 1 h 1 v 1 h 1 v 1 h 1 v -1 h 1 v -1 h 1 v -1 h 1 v -2 h -1 v -1 h -2 v 1 h -1 V 67 Z M 45,86 V 98 H 57 V 86 Z m 45,1 v 1 h -1 v 1 4 h 1 v 1 h 1 v 1 h 1 v 1 h 1 v 1 h 1 v 1 h 2 v -1 h 1 v -1 h 1 v -1 h 1 v -1 h 1 v -1 h 1 v -4 -1 h -1 v -1 h -3 v 1 h -1 v 1 h -2 v -1 h -1 v -1 z m -50,14 v 1 h -1 v 2 h 1 v 1 h 1 v 1 h 1 v 1 h 1 v -1 h 1 v -1 h 1 v -1 h 1 v -2 h -1 v -1 h -2 v 1 h -1 v -1 z m 9,0 v 1 h -1 v 2 h 1 v 1 h 1 v 1 h 1 v 1 h 1 v -1 h 1 v -1 h 1 v -1 h 1 v -2 h -1 v -1 h -2 v 1 h -1 v -1 z m 9,0 v 1 h -1 v 2 h 1 v 1 h 1 v 1 h 1 v 1 h 1 v -1 h 1 v -1 h 1 v -1 h 1 v -2 h -1 v -1 h -2 v 1 h -1 v -1 z" /><path
     id="blue"
     style="display:inline;fill:#67a9ff"
     d="m 112,19 v 1 h 3 v -1 z m 3,1 v 1 h 1 v -1 z m 1,1 v 1 h 2 v -1 z m 2,0 h 1 v -1 h -1 z m 1,-1 h 3 v -1 h -3 z m 3,0 v 1 h 1 v -1 z m 1,1 v 5 h 1 v -5 z m 0,5 h -1 v 1 h 1 z m -1,1 h -1 v 1 h 1 z m -1,1 h -1 v 1 h 1 z m -1,1 h -1 v 1 h 1 z m -1,1 h -1 v 1 h 1 z m -1,1 h -2 v 1 h 2 z m -2,0 v -1 h -1 v 1 z m -1,-1 v -1 h -1 v 1 z m -1,-1 v -1 h -1 v 1 z m -1,-1 v -1 h -1 v 1 z m -1,-1 v -1 h -1 v 1 z m -1,-1 v -5 h -1 v 5 z m 0,-5 h 1 v -1 h -1 z M 93,35 v 4 h 4 v -4 z m 22,0 v 4 h 4 v -4 z m 33,2 v 6 21 h 6 V 43 h 6 v 21 h 3 V 43 h 6 v 21 h 3 V 43 37 Z m 28,0 v 3 h 3 v 30 h -3 v 3 h 12 v -3 h -3 V 40 h 3 v -3 z m 15,0 v 3 12 h 6 11 v 18 h -11 v -3 h -6 v 3 3 h 17 4 V 52 49 h -15 v -9 h 15 v -3 z m 24,0 v 3 33 h 6 6 v -3 h -6 V 40 h 11 v 4 h 4 V 40 37 Z M 45,42 V 54 H 57 V 42 Z m 44,0 v 12 h 12 V 42 Z m -57,4 v 4 h 4 v -4 z m 6,0 v 4 h 4 v -4 z m 22,0 v 4 h 4 v -4 z m 22,0 v 4 h 4 v -4 z m 22,0 v 4 h 4 V 46 Z M 68,57 v 4 h 4 v -4 z m 6,0 v 4 h 4 v -4 z m 41,0 v 4 h 4 V 57 Z M 45,64 V 76 H 57 V 64 Z m 66,0 v 12 h 12 V 64 Z m -73,4 v 4 h 4 v -4 z m 22,0 v 4 h 4 v -4 z m 22,0 v 4 h 4 v -4 z m 22,0 v 4 h 4 v -4 z m 22,0 v 4 h 4 v -4 z m 22,8 v 32 h 6 12 v -3 H 154 V 76 Z m 21,0 v 32 h 6 V 91 h 10 v 17 h 3 V 79 76 h -13 z m 22,0 v 32 h 6 12 3 V 91 88 h -4 v -9 -3 h -11 z m 24,0 v 3 12 h 6 11 v 14 h -11 v -3 h -6 v 3 3 h 17 4 V 91 88 h -15 v -9 h 15 V 76 Z M 49,79 v 4 h 4 v -4 z m 44,0 v 4 h 4 v -4 z m 82,0 h 10 v 9 h -10 z m 22,0 h 8 v 9 h -8 z M 90,86 v 1 h 3 v -1 z m 3,1 v 1 h 1 v -1 z m 1,1 v 1 h 2 v -1 z m 2,0 h 1 v -1 h -1 z m 1,-1 h 3 v -1 h -3 z m 3,0 v 1 h 1 v -1 z m 1,1 v 5 h 1 v -5 z m 0,5 h -1 v 1 h 1 z m -1,1 h -1 v 1 h 1 z m -1,1 h -1 v 1 h 1 z m -1,1 h -1 v 1 h 1 z m -1,1 h -1 v 1 h 1 z m -1,1 h -2 v 1 h 2 z m -2,0 v -1 h -1 v 1 z m -1,-1 v -1 h -1 v 1 z m -1,-1 v -1 h -1 v 1 z m -1,-1 v -1 h -1 v 1 z m -1,-1 v -1 h -1 v 1 z m -1,-1 v -5 h -1 v 5 z m 0,-5 h 1 v -1 h -1 z m 108,3 h 12 v 14 h -12 z" /></svg>
